# xmcd CD database file
#
# Track frame offsets:
#	150
#	41633
#	54320
#	67101
#	80519
#	99274
#	109841
#	121571
#	170456
#	270765
#	292726
#	305858
#
# Disc length: 4379 seconds
#
# Revision: 0
# Processed by: cddbd v1.5.2PL0 Copyright (c) Steve Scherf et al.
# Submitted via: CDex 1.51
#
DISCID=9811190c
DTITLE=Schweizer Armeespiel - 50 Jahre Schweizer Armeespiel - Concerto
DYEAR=1900
DGENRE=Country
TTITLE0=Symphonisches Blasorchester Schweizer Armeespiel - Transformationen
TTITLE1=Symphonisches Blasorchester Schweizer Armeespiel - Älplerchilbi Tänze - Marsch
TTITLE2=Symphonisches Blasorchester Schweizer Armeespiel - Älplerchilbi Tänze - Walzer
TTITLE3=Symphonisches Blasorchester Schweizer Armeespiel - Älplerchilbi Tänze - Polka
TTITLE4=Symphonisches Blasorchester Schweizer Armeespiel - Älplerchilbi Tänze - Mazurka
TTITLE5=Symphonisches Blasorchester Schweizer Armeespiel - Älplerchilbi TäNze - Galopp
TTITLE6=Symphonisches Blasorchester Schweizer Armeespiel - Polowetzer Tanz
TTITLE7=Symphonisches Blasorchester Schweizer Armeespiel - Blue Shades
TTITLE8=Symphonisches Blasorchester Schweizer Armeespiel - Der Rosenkavalier
TTITLE9=Swiss Army Brass Band - Ode An Die Musik
TTITLE10=Swiss Army Brass Band - Folk Festival
TTITLE11=Swiss Army Brass Band - Krönungsmarsch
EXTD=
EXTT0=
EXTT1=
EXTT2=
EXTT3=
EXTT4=
EXTT5=
EXTT6=
EXTT7=
EXTT8=
EXTT9=
EXTT10=
EXTT11=
PLAYORDER=
